<?xml version="1.0" encoding="UTF-8" standalone="no"?>
<!-- Created with Inkscape (http://www.inkscape.org/) -->

<svg
   width="640"
   height="480"
   viewBox="0 0 169.33333 127"
   version="1.1"
   id="svg5"
   inkscape:version="1.2.2 (732a01da63, 2022-12-09)"
   sodipodi:docname="locked_overlay.svg"
   inkscape:export-filename="locked_overlay.png"
   inkscape:export-xdpi="96"
   inkscape:export-ydpi="96"
   xmlns:inkscape="http://www.inkscape.org/namespaces/inkscape"
   xmlns:sodipodi="http://sodipodi.sourceforge.net/DTD/sodipodi-0.dtd"
   xmlns="http://www.w3.org/2000/svg"
   xmlns:svg="http://www.w3.org/2000/svg">
  <sodipodi:namedview
     id="namedview7"
     pagecolor="#ffffff"
     bordercolor="#000000"
     borderopacity="0.25"
     inkscape:showpageshadow="2"
     inkscape:pageopacity="0.0"
     inkscape:pagecheckerboard="0"
     inkscape:deskcolor="#d1d1d1"
     inkscape:document-units="mm"
     showgrid="false"
     inkscape:zoom="0.73851712"
     inkscape:cx="396.74097"
     inkscape:cy="86.660144"
     inkscape:window-width="1920"
     inkscape:window-height="1009"
     inkscape:window-x="-8"
     inkscape:window-y="-8"
     inkscape:window-maximized="1"
     inkscape:current-layer="layer1" />
  <defs
     id="defs2" />
  <g
     inkscape:label="Layer 1"
     inkscape:groupmode="layer"
     id="layer1">
    <g
       id="g5449"
       transform="translate(3.9250113,4.2991556)">
      <g
         style="font-style:normal;font-variant:normal;font-weight:bold;font-stretch:normal;font-size:177.5px;line-height:125%;font-family:'Titillium Web';-inkscape-font-specification:'Titillium Web, Bold';text-align:start;letter-spacing:3px;word-spacing:0px;writing-mode:lr-tb;text-anchor:start;display:inline;fill:#ff7700;fill-opacity:1;stroke:none;stroke-width:1px;stroke-linecap:butt;stroke-linejoin:miter;stroke-opacity:1"
         aria-label="SWINDON"
         id="text3357"
         transform="matrix(0.09433562,0,0,0.09433562,49.979627,21.642266)">
        <path
           d="m -71.323248,408.36976 q 5.596952,16.5175 16.507592,12.82043 4.849174,-1.64314 6.038897,-6.60755 1.189722,-4.96441 0.955426,-21.60968 -0.285644,-16.79681 3.873433,-24.96355 4.00754,-8.1154 16.736621,-12.42864 16.214424,-5.49426 27.8865729,1.53147 11.6721491,7.02574 17.0637081,22.93709 4.005158,11.81986 6.170622,30.17586 l 0.787777,5.81476 -16.9332987,3.37274 Q 3.6111065,398.18251 -0.03461424,387.4234 -5.4775212,371.36052 -18.812749,375.87916 q -4.849173,1.64314 -6.293129,6.35582 -1.495304,4.56115 -0.929157,16.70164 0.955678,19.27274 -3.39876,28.85717 -4.557322,9.48424 -16.831793,13.64344 -15.456741,5.23752 -26.217162,-1.59035 -10.760421,-6.82786 -16.306025,-23.19382 -3.799765,-11.21372 -6.622724,-29.51586 l -0.787777,-5.81476 17.082327,-3.93005 q 4.815507,22.18825 7.793701,30.97737 z"
           style="font-style:normal;font-variant:normal;font-weight:bold;font-stretch:normal;font-size:160px;line-height:125%;font-family:'Titillium Web';-inkscape-font-specification:'Titillium Web, Bold';text-align:start;letter-spacing:3px;writing-mode:lr-tb;text-anchor:start;fill:#ff7700;fill-opacity:1"
           id="path3373" />
        <path
           d="m -114.35243,313.37377 1.796,-23.13038 90.690601,-6.43861 0.185793,-2.3928 -88.139034,-26.42248 1.98179,-25.52317 91.161274,-12.50037 0.185793,-2.3928 -88.609717,-20.36072 1.79601,-23.13037 106.863284,29.1602 -2.58871834,33.33965 -83.79708566,10.66495 81.1464362,23.4723 -2.5887184,33.33964 z"
           style="font-style:normal;font-variant:normal;font-weight:bold;font-stretch:normal;font-size:160px;line-height:125%;font-family:'Titillium Web';-inkscape-font-specification:'Titillium Web, Bold';text-align:start;letter-spacing:3px;writing-mode:lr-tb;text-anchor:start;fill:#ff7700;fill-opacity:1"
           id="path3375" />
        <path
           d="M 21.563796,155.30076 -78.139817,111.75045 -69.301665,91.516484 30.401947,135.0668 Z"
           style="font-style:normal;font-variant:normal;font-weight:bold;font-stretch:normal;font-size:160px;line-height:125%;font-family:'Titillium Web';-inkscape-font-specification:'Titillium Web, Bold';text-align:start;letter-spacing:3px;writing-mode:lr-tb;text-anchor:start;fill:#ff7700;fill-opacity:1"
           id="path3377" />
        <path
           d="M 44.398043,103.68945 -39.963016,34.982452 -16.420765,6.0763828 69.62356,42.312715 70.633957,41.072111 1.1601433,-15.510123 15.103623,-32.630456 99.464682,36.076543 76.528669,64.23825 -10.121894,28.74628 l -1.010398,1.240604 69.473814,56.582234 z"
           style="font-style:normal;font-variant:normal;font-weight:bold;font-stretch:normal;font-size:160px;line-height:125%;font-family:'Titillium Web';-inkscape-font-specification:'Titillium Web, Bold';text-align:start;letter-spacing:3px;writing-mode:lr-tb;text-anchor:start;fill:#ff7700;fill-opacity:1"
           id="path3379" />
        <path
           d="M 160.14087,-5.7383368 128.37118,12.514789 74.16976,-81.823145 105.93945,-100.07627 q 12.20844,-7.0143 21.63063,-8.92174 9.34248,-2.04618 17.07062,1.44836 7.78717,3.2761 14.07502,10.366076 6.20814,6.951243 13.54127,19.714611 7.33314,12.763367 10.66927,22.102823 3.25642,9.200723 2.7817,18.330818 -0.41569,8.911655 -6.70858,16.586828 -6.37261,7.536439 -18.85851,14.7101572 z m -1.40498,-49.0153652 q -2.27319,-4.598848 -6.73683,-12.367855 -4.54336,-7.907738 -7.80836,-12.305803 -3.265,-4.398065 -7.57781,-7.086948 -4.3128,-2.688884 -9.27185,-1.684967 -4.90002,0.785476 -11.83664,4.770875 l -12.62463,7.253426 35.07151,61.042192 12.62463,-7.253426 q 10.40492,-5.978098 12.09292,-13.959994 1.55228,-6.612232 -3.93294,-18.4075 z"
           style="font-style:normal;font-variant:normal;font-weight:bold;font-stretch:normal;font-size:160px;line-height:125%;font-family:'Titillium Web';-inkscape-font-specification:'Titillium Web, Bold';text-align:start;letter-spacing:3px;writing-mode:lr-tb;text-anchor:start;fill:#ff7700;fill-opacity:1"
           id="path3381" />
        <path
           d="m 249.07966,-68.18253 q 6.11398,7.408215 18.89433,5.257792 12.78035,-2.150422 15.97551,-11.124994 3.3264,-9.158902 0.0609,-28.566098 -3.292,-19.56498 -9.51218,-27.60432 -6.22017,-8.03934 -18.84274,-5.91547 -12.62256,2.12388 -15.86931,11.75612 -3.24675,9.63225 0.0452,29.19723 3.26546,19.407194 9.2482,26.99974 z m 54.24657,5.150391 q -7.71021,14.926244 -32.16643,19.04125 -24.45622,4.115005 -36.78434,-7.43959 -12.19689,-11.738925 -16.9756,-40.139697 -4.77872,-28.400774 2.85184,-43.800364 7.76179,-15.58392 32.21801,-19.69893 24.45622,-4.115 36.73275,8.09727 12.40777,12.02794 17.18649,40.42871 4.77871,28.400776 -3.06272,43.511351 z"
           style="font-style:normal;font-variant:normal;font-weight:bold;font-stretch:normal;font-size:160px;line-height:125%;font-family:'Titillium Web';-inkscape-font-specification:'Titillium Web, Bold';text-align:start;letter-spacing:3px;writing-mode:lr-tb;text-anchor:start;fill:#ff7700;fill-opacity:1"
           id="path3383" />
        <path
           d="m 348.01976,-52.526989 21.93352,-106.566231 36.51461,7.51546 7.63837,93.05027 1.56715,0.322552 18.06289,-87.760422 21.62668,4.45121 -21.93352,106.566231 -35.57431,-7.321925 -8.57866,-93.243806 -1.56715,-0.32255 -18.0629,87.760425 z"
           style="font-style:normal;font-variant:normal;font-weight:bold;font-stretch:normal;font-size:160px;line-height:125%;font-family:'Titillium Web';-inkscape-font-specification:'Titillium Web, Bold';text-align:start;letter-spacing:3px;writing-mode:lr-tb;text-anchor:start;fill:#ff7700;fill-opacity:1"
           id="path3385" />
      </g>
      <g
         style="font-style:normal;font-variant:normal;font-weight:bold;font-stretch:normal;font-size:177.5px;line-height:120%;font-family:'Titillium Web';-inkscape-font-specification:'Titillium Web, Bold';text-align:start;letter-spacing:22px;word-spacing:0px;writing-mode:lr-tb;text-anchor:start;display:inline;fill:#ff7700;fill-opacity:1;stroke:none;stroke-width:1px;stroke-linecap:butt;stroke-linejoin:miter;stroke-opacity:1"
         aria-label="MAKERSPACE"
         id="text4181"
         transform="matrix(0.09433562,0,0,0.09433562,49.979627,21.642266)">
        <path
           d="m 134.54657,674.03634 33.96729,-103.3618 35.72062,11.73869 -6.53582,81.38755 43.01646,-69.39909 35.72062,11.73869 -33.96729,103.36181 -20.97636,-6.89336 26.27469,-79.9534 -2.28004,-0.74928 -44.99249,68.74972 -20.97637,-6.89336 4.55979,-82.03692 -2.28004,-0.74928 -26.2747,79.9534 z"
           style="font-size:160px;line-height:100%;letter-spacing:14.32px"
           id="path3388" />
        <path
           d="m 275.91385,713.20335 25.35984,-108.59829 41.91863,0.33931 23.59855,108.99458 -22.07927,-0.17872 -4.16057,-19.71432 -38.07875,-0.30823 -4.47915,19.64439 z m 42.33164,-90.22032 -11.45794,51.58895 29.75902,0.24088 -10.62133,-51.76766 -7.67975,-0.0622 z"
           style="font-size:160px;line-height:100%;letter-spacing:14.32px"
           id="path3390" />
        <path
           d="m 420.41546,703.2571 -21.39072,5.47389 -26.97278,-105.40356 21.39072,-5.47388 11.86009,46.34656 13.86382,-5.19931 5.89715,-49.23909 24.33582,-6.22754 -9.41471,58.72733 37.00752,46.51756 -24.64583,6.30687 -28.42005,-37.48451 -13.86382,5.19931 z"
           style="font-size:160px;line-height:100%;letter-spacing:14.32px"
           id="path3392" />
        <path
           d="m 506.67243,675.44087 -52.24372,-95.43601 61.75271,-33.80476 9.21948,16.84165 -42.38482,23.20235 12.21582,22.31519 33.96399,-18.59262 9.06582,16.56096 -33.96399,18.59262 12.52313,22.87657 42.38481,-23.20236 9.21949,16.84165 z"
           style="font-size:160px;line-height:100%;letter-spacing:14.32px"
           id="path3394" />
        <path
           d="m 588.86365,578.51513 25.03455,26.53416 -16.06016,15.15249 -74.66442,-79.13699 30.72377,-28.98737 q 27.9307,-26.35215 52.52604,-0.28349 14.60349,15.47826 9.88313,33.79014 l 39.83683,19.6076 -17.57307,16.57989 -34.2284,-17.85992 z m 1.93991,-27.78708 q 5.70251,-5.38023 5.20157,-11.50678 -0.50095,-6.12656 -5.88118,-11.82908 -5.38023,-5.70251 -11.59028,-6.22266 -6.09366,-0.62994 -11.67981,4.64049 l -14.66361,13.83488 23.71693,25.13763 z"
           style="font-size:160px;line-height:100%;letter-spacing:14.32px"
           id="path3396" />
        <path
           d="m 618.91221,458.79154 q -9.29102,14.75908 0.4581,20.89627 4.33294,2.72764 8.93626,0.52078 4.60332,-2.20686 17.3749,-12.88426 12.85682,-10.8128 21.81795,-12.73419 8.82572,-2.00662 20.19969,5.15343 14.48828,9.12055 16.395,22.60997 1.90672,13.48942 -7.04335,27.70688 -6.64862,10.56154 -19.53031,23.81651 l -4.01642,4.27789 -13.29493,-11.01621 q 13.85927,-16.60989 19.91122,-26.22361 9.03531,-14.35286 -2.88028,-21.85387 -4.33294,-2.72764 -8.90119,-0.87683 -4.48301,1.71541 -13.54893,9.80991 -14.35604,12.89404 -24.5407,15.5577 -10.23482,2.44303 -21.20258,-4.46131 -13.81125,-8.69435 -15.29667,-21.35137 -1.48541,-12.65701 7.72037,-27.28068 6.30767,-10.01993 18.73298,-23.75126 l 4.01642,-4.27788 13.82146,10.78047 q -14.18514,17.7282 -19.12899,25.58166 z"
           style="font-size:160px;line-height:100%;letter-spacing:14.32px"
           id="path3398" />
        <path
           d="m 712.63144,396.7715 -5.58919,17.02607 30.09967,9.8809 -6.88668,20.97856 L 626.88262,410.72264 639.3585,372.718 q 12.07665,-36.78849 47.95303,-25.01126 18.09021,5.93852 24.72538,18.5575 6.53305,12.41705 0.59453,30.50726 z m -23.52738,11.13746 5.53929,-16.87406 q 5.14006,-15.65791 -14.31831,-22.04556 -9.57717,-3.14392 -14.92926,-0.69085 -5.50411,2.40316 -8.14899,10.46015 l -5.53929,16.87406 z"
           style="font-size:160px;line-height:100%;letter-spacing:14.32px"
           id="path3400" />
        <path
           d="M 758.84367,348.72328 651.85438,317.259 l 2.71074,-41.83226 110.15528,-17.39325 -1.42779,22.03379 -19.91817,3.03836 -2.46243,38.0003 19.35946,5.58356 z m -87.68041,-47.36896 50.85794,14.35876 1.92442,-29.69771 -52.28573,7.67502 z"
           style="font-size:160px;line-height:100%;letter-spacing:14.32px"
           id="path3402" />
        <path
           d="m 746.83877,159.82889 q 6.70183,16.00841 9.17417,29.3818 2.47235,13.37339 0.65174,22.00824 -1.82061,8.63485 -8.21447,14.5355 -6.39386,5.90066 -15.82862,9.43469 -9.43475,3.53403 -24.22415,6.26815 -30.99479,5.73001 -44.70926,-0.6837 -13.90089,-6.54197 -18.23476,-29.98473 -2.50143,-13.53073 -1.54017,-32.0948 l 17.42309,-2.57016 q 0.51954,16.01236 2.43924,26.3964 1.89061,10.22671 5.53704,14.10851 3.4891,3.91088 11.60567,4.68832 8.08749,0.62011 26.6529,-2.81208 18.56541,-3.43219 25.01744,-9.01818 6.26561,-5.71424 3.88053,-18.61563 -2.41417,-13.05872 -7.32188,-27.28357 z"
           style="font-size:160px;line-height:100%;letter-spacing:14.32px"
           id="path3404" />
        <path
           d="m 737.34066,125.60339 -99.15906,44.77634 -28.97293,-64.16175 17.49866,-7.901703 19.88596,44.038293 23.18572,-10.46977 -15.93511,-35.288957 17.20702,-7.770012 15.93511,35.288959 23.76901,-10.73315 -19.88597,-44.03829 17.49866,-7.901708 z"
           style="font-size:160px;line-height:100%;letter-spacing:14.32px"
           id="path3406" />
      </g>
      <path
         inkscape:connector-curvature="0"
         d="m 67.483291,30.418165 0.38428,1.434256 c 0.07383,0.27576 -0.02268,0.589841 -0.238639,0.77653 -0.725421,0.627398 -1.405343,1.30738 -2.03279,2.032799 -0.186675,0.215978 -0.500759,0.312505 -0.776513,0.238654 L 63.385658,34.5161 c -0.298987,-0.08015 -0.641676,0.04307 -0.821189,0.295264 -0.812773,1.142504 -1.516865,2.362245 -2.099721,3.637391 -0.128754,0.281496 -0.06428,0.639901 0.154508,0.858865 l 1.050068,1.049817 c 0.201878,0.201869 0.275383,0.52216 0.181736,0.791854 -0.314558,0.906114 -0.563446,1.834967 -0.744079,2.77696 -0.05374,0.280333 -0.277474,0.520904 -0.553167,0.594815 l -1.434278,0.384305 c -0.298936,0.0802 -0.533973,0.35828 -0.56327,0.666408 -0.132707,1.39574 -0.132707,2.804046 0,4.199786 0.02929,0.308128 0.264334,0.586205 0.56327,0.666408 l 1.434278,0.384306 c 0.275693,0.0739 0.499423,0.314482 0.553167,0.594814 0.277279,1.44579 0.715718,2.860686 1.304631,4.209878 0.118216,0.270888 0.405401,0.458927 0.700937,0.458958 h 3.927586 c 0.200157,-4.4e-5 0.399069,-0.08245 0.540624,-0.22397 L 90.84453,32.595841 c 0.141616,-0.141612 0.34066,-0.224051 0.540931,-0.224031 h 12.641589 c 0.25879,-5.3e-5 0.51326,0.141397 0.64985,0.361227 1.61922,2.605904 2.81068,5.476992 3.51237,8.46373 0.70175,2.986739 0.9135,6.087995 0.62423,9.142393 -0.28927,3.054399 -1.07942,6.060807 -2.32937,8.86269 -1.24994,2.801882 -2.95917,5.398209 -5.03881,7.653761 -2.079647,2.255657 -4.528773,4.169714 -7.22,5.642591 -2.69123,1.472876 -5.623531,2.504052 -8.644286,3.039877 -3.02076,0.535785 -6.128843,0.575968 -9.162474,0.118451 -3.03363,-0.457503 -5.99157,-1.412524 -8.719973,-2.815372 -0.21325,-0.109709 -0.368767,-0.325101 -0.405808,-0.562045 -0.03704,-0.236945 0.04531,-0.489525 0.214896,-0.659097 l 5.203376,-5.203672 c 0.207533,-0.207574 0.540346,-0.278468 0.814453,-0.173486 1.091567,0.418094 2.220004,0.739702 3.368001,0.95983 0.280319,0.05375 0.520886,0.277491 0.59478,0.553199 l 0.384283,1.434359 c 0.0802,0.298942 0.358263,0.534002 0.66637,0.563291 1.395664,0.132716 2.803888,0.132716 4.199551,0 0.308112,-0.02929 0.58617,-0.264349 0.666371,-0.563291 l 0.384283,-1.434359 c 0.0739,-0.275708 0.314465,-0.499452 0.59478,-0.553199 0.941939,-0.180644 1.870801,-0.429556 2.776804,-0.74412 0.269679,-0.09366 0.589959,-0.02014 0.79181,0.181746 l 1.049758,1.050126 c 0.21895,0.218801 0.577334,0.283278 0.858815,0.154517 1.275073,-0.582909 2.494746,-1.287092 3.637185,-2.099841 0.252183,-0.179511 0.375394,-0.522221 0.295247,-0.821224 l -0.384284,-1.434051 c -0.07384,-0.27576 0.02268,-0.589861 0.238642,-0.776561 0.725418,-0.627428 1.405344,-1.307379 2.032787,-2.032901 0.186679,-0.215977 0.500762,-0.312505 0.776517,-0.238655 l 1.43397,0.384306 c 0.298984,0.08015 0.641676,-0.04307 0.821186,-0.295265 0.812777,-1.142504 1.51687,-2.362244 2.09972,-3.637391 0.12876,-0.281497 0.0643,-0.6399 -0.15451,-0.858865 L 99.6072,54.985618 c -0.201879,-0.201869 -0.275384,-0.522159 -0.181738,-0.791853 0.314557,-0.906115 0.563447,-1.834967 0.744078,-2.776961 0.0537,-0.280332 0.27748,-0.520902 0.55317,-0.594814 l 1.43428,-0.384305 c 0.29893,-0.0802 0.53397,-0.358281 0.56327,-0.666408 0.1327,-1.395741 0.1327,-2.804045 0,-4.199786 -0.0293,-0.308127 -0.26434,-0.586204 -0.56327,-0.666409 l -1.43428,-0.384305 c -0.27569,-0.0739 -0.49942,-0.314471 -0.55317,-0.594814 -0.277276,-1.445791 -0.715715,-2.860686 -1.304626,-4.209877 -0.118219,-0.27089 -0.405405,-0.458928 -0.700941,-0.458959 h -3.927582 c -0.200161,4.2e-5 -0.399073,0.08245 -0.540625,0.223969 L 70.431992,62.747214 c -0.141626,0.141593 -0.34067,0.22401 -0.54093,0.22397 H 57.249475 c -0.258825,2.7e-5 -0.513295,-0.14148 -0.649853,-0.36135 -1.619125,-2.605905 -2.810581,-5.476992 -3.512273,-8.463731 -0.701713,-2.986738 -0.913436,-6.087994 -0.62415,-9.142393 0.289286,-3.054398 1.079519,-6.060704 2.329467,-8.862587 1.249948,-2.801882 2.959177,-5.398106 5.038819,-7.653761 2.079642,-2.255554 4.528769,-4.169612 7.219995,-5.64259 2.691231,-1.472875 5.623531,-2.504053 8.644287,-3.039879 3.020759,-0.535783 6.128739,-0.575978 9.16237,-0.118482 3.03363,0.457496 5.991573,1.412527 8.719977,2.81527 0.213256,0.109709 0.368784,0.325099 0.405826,0.562055 0.03704,0.236955 -0.04532,0.489545 -0.214918,0.659107 l -5.203376,5.203673 c -0.207541,0.207564 -0.540357,0.278448 -0.814453,0.173456 -1.091567,-0.418105 -2.220001,-0.739723 -3.368001,-0.959861 -0.280326,-0.05376 -0.520893,-0.277532 -0.59478,-0.553261 l -0.384283,-1.434257 c -0.08012,-0.299024 -0.358209,-0.534188 -0.666371,-0.563507 -1.395663,-0.132715 -2.803887,-0.132715 -4.19955,0 -0.308161,0.02933 -0.586252,0.264483 -0.666371,0.563507 l -0.384283,1.434257 c -0.07388,0.275729 -0.314443,0.499502 -0.59478,0.553261 -0.941939,0.180622 -1.870801,0.429515 -2.776804,0.744058 -0.269676,0.09366 -0.589949,0.02016 -0.791806,-0.181715 l -1.049758,-1.050023 c -0.21889,-0.218893 -0.577285,-0.283485 -0.858819,-0.154796 -1.275176,0.58294 -2.494746,1.287093 -3.637185,2.099944 -0.25219,0.179501 -0.375405,0.522232 -0.295247,0.821245 z"
         style="fill:#ffbb00;stroke-width:0.102981"
         id="path3364"
         inkscape:export-xdpi="65.741989"
         inkscape:export-ydpi="65.741989" />
      <path
         style="display:inline;fill:#ff7700;fill-opacity:1;stroke:none;stroke-width:0.0397771;stroke-linecap:butt;stroke-linejoin:miter"
         inkscape:connector-curvature="0"
         id="path15731"
         d="M 87.128923,60.653314 81.72031,55.244396 c -0.298734,-0.298831 -0.78317,-0.298831 -1.081904,0 -0.298738,0.298833 -0.783171,0.298833 -1.081909,0 L 79.28633,54.973904 c -0.298816,-0.298751 -0.298816,-0.783214 0,-1.081966 l 0.228559,-0.228572 c 0.19325,-0.193264 0.474931,-0.268732 0.738912,-0.197973 l 7.15998,1.918533 c 0.568527,0.152048 1.088607,-0.368064 0.93657,-0.936623 L 86.431926,47.28692 c -0.07076,-0.263999 0.0047,-0.545693 0.19796,-0.738956 l 0.228559,-0.228572 c 0.298738,-0.298836 0.783171,-0.298836 1.081908,0 l 0.270475,0.270185 c 0.298816,0.298753 0.298816,0.783215 0,1.081967 -0.298816,0.298754 -0.298816,0.783215 0,1.081967 l 5.408613,5.408919 c 0.298734,0.298832 0.783171,0.298832 1.081905,0 l 5.949564,-5.949902 c 0.29882,-0.298752 0.29882,-0.783214 0,-1.081967 l -5.408612,-5.409039 c -0.298734,-0.298835 -0.783171,-0.298835 -1.081905,0 -0.298702,0.298625 -0.782899,0.298625 -1.081601,0 l -6.490821,-6.490947 c -0.298734,-0.29874 -0.298734,-0.783107 0,-1.081845 0.298713,-0.298737 0.298713,-0.78308 0,-1.081813 l -5.408613,-5.409133 c -0.298738,-0.298836 -0.783171,-0.298836 -1.081908,0 l -5.096523,5.096842 c -0.193229,0.19325 -0.268692,0.474916 -0.197961,0.738896 l 2.71058,10.115964 c 0.15243,0.568832 -0.368082,1.089353 -0.93688,0.936899 L 66.461029,41.835806 c -0.263921,-0.07067 -0.545494,0.0048 -0.738699,0.198005 l -5.096554,5.09675 c -0.298818,0.298753 -0.298818,0.783215 0,1.081967 l 5.408734,5.408919 c 0.298737,0.298831 0.78317,0.298831 1.081908,0 0.298702,-0.298628 0.782896,-0.298628 1.081598,0 l 6.490824,6.49119 c 0.298609,0.298719 0.298609,0.782943 0,1.081661 -0.298816,0.298753 -0.298816,0.783215 0,1.081967 l 5.40861,5.408918 c 0.298737,0.298833 0.78317,0.298833 1.081908,0 l 5.949565,-5.949902 c 0.298816,-0.298752 0.298816,-0.783213 0,-1.081967 z"
         sodipodi:nodetypes="ccccccccccccccccccccccccccccccccccccccccccccccc"
         inkscape:export-xdpi="65.741989"
         inkscape:export-ydpi="65.741989" />
    </g>
    <text
       xml:space="preserve"
       style="font-size:10.4229px;font-family:sans-serif;-inkscape-font-specification:sans-serif;fill:#000000;fill-opacity:1;stroke-width:2.95452;stroke-linecap:round;stroke-linejoin:round"
       x="34.455898"
       y="111.97901"
       id="text5399"><tspan
         sodipodi:role="line"
         id="tspan5397"
         style="stroke-width:2.95452"
         x="34.455898"
         y="111.97901">We'll be right back!</tspan></text>
  </g>
</svg>
