<?xml version="1.0" encoding="UTF-8" standalone="no"?>
<svg
   id="svg2"
   xlink="http://www.w3.org/1999/xlink"
   height="600"
   dsy:text-version="20000"
   width="600"
   version="1.1"
   viewBox="0 0 600 600"
   inkscape:version="1.2.2 (732a01da63, 2022-12-09)"
   sodipodi:docname="makerspace_logo_cleaned.svg"
   inkscape:export-filename="/Volumes/Backup/Documents/Stuff/REPRAP/Models/Swindon Hackspace Logo/Swindon Makerspace/IMAGE 2D - MakerSpace WITH TEXT.png"
   inkscape:export-xdpi="64"
   inkscape:export-ydpi="64"
   xmlns:inkscape="http://www.inkscape.org/namespaces/inkscape"
   xmlns:sodipodi="http://sodipodi.sourceforge.net/DTD/sodipodi-0.dtd"
   xmlns="http://www.w3.org/2000/svg"
   xmlns:svg="http://www.w3.org/2000/svg"
   xmlns:rdf="http://www.w3.org/1999/02/22-rdf-syntax-ns#"
   xmlns:cc="http://creativecommons.org/ns#"
   xmlns:dc="http://purl.org/dc/elements/1.1/"
   xmlns:dsy="http://www.3ds.com/print">
  <defs
     id="defs3345" />
  <sodipodi:namedview
     pagecolor="#ffffff"
     bordercolor="#666666"
     borderopacity="1"
     objecttolerance="10"
     gridtolerance="10"
     guidetolerance="10"
     inkscape:pageopacity="0"
     inkscape:pageshadow="2"
     inkscape:window-width="1920"
     inkscape:window-height="1009"
     id="namedview3343"
     showgrid="false"
     inkscape:zoom="0.78135299"
     inkscape:cx="310.999"
     inkscape:cy="271.32423"
     inkscape:window-x="-8"
     inkscape:window-y="-8"
     inkscape:window-maximized="1"
     inkscape:current-layer="layer3"
     fit-margin-top="0"
     fit-margin-left="0"
     fit-margin-right="0"
     fit-margin-bottom="0"
     inkscape:showpageshadow="2"
     inkscape:pagecheckerboard="0"
     inkscape:deskcolor="#d1d1d1"
     showguides="true">
    <sodipodi:guide
       position="192.40952,244.00612"
       orientation="0.70710678,-0.70710678"
       id="guide341"
       inkscape:locked="false" />
    <sodipodi:guide
       position="345.93713,294.33481"
       orientation="0.70710678,-0.70710678"
       id="guide343"
       inkscape:locked="false" />
    <sodipodi:guide
       position="393.17118,401.77614"
       orientation="-0.70710678,-0.70710678"
       id="guide345"
       inkscape:locked="false" />
    <sodipodi:guide
       position="198.22941,206.8235"
       orientation="-0.70710678,-0.70710678"
       id="guide347"
       inkscape:locked="false" />
  </sodipodi:namedview>
  <title
     id="title4024">Swindon Hackspace Logo</title>
  <metadata
     id="metadata68">
    <rdf:RDF>
      <cc:Work
         rdf:about="">
        <dc:format>image/svg+xml</dc:format>
        <dc:type
           rdf:resource="http://purl.org/dc/dcmitype/StillImage" />
        <dc:title>Swindon Hackspace Logo</dc:title>
        <cc:license
           rdf:resource="http://creativecommons.org/licenses/by-nc-sa/4.0/" />
        <dc:date>03/08/2013</dc:date>
        <dc:creator>
          <cc:Agent>
            <dc:title>Steve Wood</dc:title>
          </cc:Agent>
        </dc:creator>
        <dc:publisher>
          <cc:Agent>
            <dc:title>Steve Wood</dc:title>
          </cc:Agent>
        </dc:publisher>
        <dc:contributor>
          <cc:Agent>
            <dc:title>Members of the Swindon Hackspace</dc:title>
          </cc:Agent>
        </dc:contributor>
        <dc:rights>
          <cc:Agent>
            <dc:title>Swindon Hackspace</dc:title>
          </cc:Agent>
        </dc:rights>
        <dc:source>https://github.com/snhack/HackspaceLogo</dc:source>
      </cc:Work>
      <cc:License
         rdf:about="http://creativecommons.org/licenses/by-nc-sa/4.0/">
        <cc:permits
           rdf:resource="http://creativecommons.org/ns#Reproduction" />
        <cc:permits
           rdf:resource="http://creativecommons.org/ns#Distribution" />
        <cc:requires
           rdf:resource="http://creativecommons.org/ns#Notice" />
        <cc:requires
           rdf:resource="http://creativecommons.org/ns#Attribution" />
        <cc:prohibits
           rdf:resource="http://creativecommons.org/ns#CommercialUse" />
        <cc:permits
           rdf:resource="http://creativecommons.org/ns#DerivativeWorks" />
        <cc:requires
           rdf:resource="http://creativecommons.org/ns#ShareAlike" />
      </cc:License>
    </rdf:RDF>
  </metadata>
  <g
     inkscape:groupmode="layer"
     id="layer1"
     inkscape:label="Construction"
     style="display:inline"
     transform="translate(-50.173677,49.271649)" />
  <g
     inkscape:groupmode="layer"
     id="layer2"
     inkscape:label="Text"
     style="display:inline"
     transform="translate(-50.173677,49.271649)" />
  <g
     inkscape:groupmode="layer"
     id="layer3"
     inkscape:label="S"
     transform="translate(-175.1775,-124.80695)">
    <path
       inkscape:connector-curvature="0"
       d="m 546.85286,301.53499 36.51479,-36.53656 0.59032,-0.53305 0.64041,-0.47135 0.68352,-0.40676 0.71964,-0.33927 0.7488,-0.2689 0.77096,-0.19563 0.78614,-0.11946 0.79434,-0.0404 h 16.75081 16.75082 16.75081 16.75081 16.75081 16.75081 16.75082 16.75081 l 1.02425,0.0688 1.00584,0.20158 0.97334,0.32652 0.92672,0.44362 0.86599,0.55288 0.79117,0.65429 0.70223,0.74787 0.59919,0.83361 6.22286,10.48758 5.79004,10.73255 5.34952,10.95893 4.90131,11.16674 4.44539,11.35597 3.98177,11.52664 3.51044,11.67871 3.03143,11.81223 2.54585,11.92635 2.05753,12.02011 1.56783,12.09383 1.07678,12.14749 0.58434,12.18111 0.0905,12.19469 -0.40464,12.18821 -0.90119,12.16169 -1.39795,12.11466 -1.8906,12.04752 -2.37816,11.96094 -2.86061,11.85492 -3.33796,11.72944 -3.81022,11.58452 -4.27737,11.42016 -4.73943,11.23634 -5.19513,11.03301 -5.64052,10.81194 -6.07487,10.57406 -6.49818,10.3194 -6.91045,10.04792 -7.31169,9.75966 -7.70187,9.45459 -8.08103,9.13273 -8.44789,8.79481 -8.79925,8.44297 -9.1348,8.07874 -9.45451,7.70216 -9.75841,7.3132 -10.04648,6.91186 -10.31873,6.49816 -10.57515,6.07209 -10.81471,5.63434 -11.03534,5.18872 -11.23699,4.73643 -11.41969,4.27748 -11.58343,3.81187 -11.72821,3.33958 -11.85404,2.86064 -11.96091,2.37502 -12.04807,1.88353 -12.11475,1.39074 -12.16134,0.8977 -12.18784,0.40439 -12.19423,-0.0892 -12.18053,-0.583 -12.14673,-1.0771 -12.09284,-1.57144 -12.01839,-2.06488 -11.92406,-2.55311 -11.81063,-3.03519 -11.67807,-3.51108 -11.5264,-3.98082 -11.35563,-4.44438 -11.16574,-4.90177 -10.95674,-5.35299 -0.81775,-0.48688 -0.75283,-0.58146 -0.68037,-0.66558 -0.60035,-0.73926 -0.51281,-0.80248 -0.4177,-0.85525 -0.31505,-0.89757 -0.20486,-0.92945 -0.0886,-0.94762 0.0261,-0.95091 0.13673,-0.94193 0.2434,-0.92072 0.34606,-0.88723 0.44475,-0.8415 0.53944,-0.78353 0.63012,-0.71328 6.89477,-6.89516 6.89477,-6.89516 6.89477,-6.89516 6.89476,-6.89516 6.89477,-6.89515 6.89477,-6.89516 6.89477,-6.89516 6.89477,-6.89516 0.88342,-0.75642 0.98506,-0.61571 1.06386,-0.47014 1.1198,-0.31971 1.15287,-0.1644 1.1631,-0.004 1.15048,0.16083 1.11498,0.33074 4.35712,1.61395 4.39162,1.51743 4.42395,1.42032 4.45414,1.32256 4.48219,1.2242 4.50807,1.1252 4.53182,1.0256 4.55341,0.92537 1.09192,0.29569 1.03666,0.44996 0.96562,0.58958 0.87882,0.71453 0.77625,0.82481 0.65792,0.92045 0.52381,1.00141 0.37394,1.06772 0.5092,1.90061 0.50919,1.9006 0.5092,1.90061 0.50919,1.90061 0.5092,1.90061 0.5092,1.9006 0.50919,1.90061 0.5092,1.90061 0.41364,1.15366 0.58943,1.07255 0.74437,0.97382 0.87848,0.85745 0.99172,0.72346 1.08413,0.57185 1.15568,0.4026 1.20638,0.21574 5.55371,0.46162 5.56308,0.32973 5.56932,0.19784 5.57244,0.0659 5.57244,-0.0659 5.56932,-0.19784 5.56308,-0.32973 5.55371,-0.46162 1.20638,-0.21577 1.15568,-0.40262 1.08412,-0.57185 0.99172,-0.72345 0.87847,-0.85744 0.74438,-0.9738 0.58943,-1.07254 0.41365,-1.15366 0.5092,-1.90061 0.50919,-1.90061 0.5092,-1.9006 0.5092,-1.90061 0.5092,-1.90061 0.50919,-1.90061 0.5092,-1.9006 0.5092,-1.90061 0.37395,-1.06772 0.52381,-1.00142 0.65792,-0.92045 0.77624,-0.82482 0.87882,-0.71453 0.96562,-0.58957 1.03665,-0.44996 1.09193,-0.29568 3.73767,-0.75196 3.72346,-0.81948 3.70803,-0.88667 3.69138,-0.95354 3.67353,-1.02009 3.65446,-1.0863 3.63417,-1.1522 3.61266,-1.21777 1.09366,-0.29004 1.12296,-0.12872 1.13125,0.0278 1.11853,0.17944 1.08484,0.3263 1.03013,0.46834 0.95443,0.60555 0.85773,0.73795 1.39099,1.39148 1.39099,1.39147 1.39099,1.39148 1.39098,1.39147 1.39099,1.39148 1.39099,1.39148 1.39099,1.39147 1.39099,1.39148 0.93517,0.79228 1.04687,0.63408 1.13168,0.47105 1.18964,0.30318 1.2207,0.13048 1.22489,-0.0471 1.20222,-0.22943 1.15267,-0.41663 5.04065,-2.37716 4.98289,-2.4961 4.9224,-2.61347 4.85921,-2.72925 4.7933,-2.84346 4.72468,-2.95608 4.65335,-3.06714 4.57931,-3.1766 0.93684,-0.7904 0.79944,-0.92688 0.65278,-1.03766 0.49689,-1.12273 0.33176,-1.18212 0.15738,-1.21578 -0.0262,-1.22376 -0.21909,-1.20602 -0.5092,-1.9002 -0.50919,-1.9002 -0.5092,-1.90019 -0.50919,-1.9002 -0.5092,-1.9002 -0.5092,-1.9002 -0.50919,-1.90019 -0.5092,-1.9002 -0.20993,-1.11181 -0.047,-1.12933 0.10971,-1.12625 0.26003,-1.10259 0.40403,-1.05833 0.54171,-0.99349 0.67305,-0.90805 0.79807,-0.80204 2.86091,-2.52009 2.81483,-2.57142 2.76788,-2.62189 2.72007,-2.6715 2.67138,-2.72024 2.62183,-2.76811 2.57142,-2.81514 2.52013,-2.86128 0.80196,-0.79814 0.90798,-0.6731 0.99341,-0.54174 1.05827,-0.40406 1.10253,-0.26004 1.1262,-0.1097 1.12929,0.047 1.11178,0.20996 1.90009,0.50923 1.90009,0.50922 1.90009,0.50923 1.90009,0.50922 1.90009,0.50923 1.90009,0.50923 1.90009,0.50922 1.90009,0.50923 1.20595,0.2191 1.22369,0.0262 1.21572,-0.15738 1.18205,-0.33178 1.12269,-0.49691 1.03762,-0.65282 0.92685,-0.79948 0.79039,-0.9369 3.17665,-4.57957 3.06709,-4.65362 2.95596,-4.72495 2.84327,-4.79357 2.72903,-4.85948 2.61322,-4.92268 2.49586,-4.98317 2.37693,-5.04094 0.41661,-1.15273 0.22941,-1.20229 0.0471,-1.22496 -0.13047,-1.22077 -0.30317,-1.1897 -0.47102,-1.13175 -0.63404,-1.04692 -0.79223,-0.93523 -1.39181,-1.38984 -1.3918,-1.38984 -1.39181,-1.38984 -1.39181,-1.38984 -1.39181,-1.38984 -1.3918,-1.38984 -1.39181,-1.38984 -1.39181,-1.38984 -0.73791,-0.85781 -0.60551,-0.95449 -0.46831,-1.03019 -0.32628,-1.08489 -0.17943,-1.11859 -0.0278,-1.1313 0.12871,-1.12301 0.29001,-1.09372 1.21773,-3.61306 1.15215,-3.63446 1.08624,-3.65467 1.02003,-3.6737 0.95347,-3.69152 0.88661,-3.70816 0.81942,-3.7236 0.75191,-3.73786 0.2957,-1.09198 0.44995,-1.0367 0.58954,-0.96566 0.71448,-0.87886 0.82476,-0.77629 0.92039,-0.65795 1.00135,-0.52386 1.06765,-0.374 1.9005,-0.50923 1.9005,-0.50922 1.9005,-0.50923 1.9005,-0.50922 1.9005,-0.50923 1.9005,-0.50922 1.9005,-0.50923 1.9005,-0.50922 1.15363,-0.41366 1.07251,-0.58947 0.97376,-0.74441 0.85741,-0.87853 0.72342,-0.99178 0.57182,-1.08418 0.4026,-1.15575 0.21576,-1.20645 0.46161,-5.55403 0.32971,-5.56339 0.19783,-5.56963 0.0659,-5.57276 -0.0659,-5.57275 -0.19783,-5.56964 -0.32972,-5.56339 -0.46159,-5.55403 -0.21576,-1.20645 -0.40259,-1.15574 -0.57183,-1.08418 -0.72342,-0.99178 -0.85741,-0.87852 -0.97376,-0.74442 -1.07251,-0.58947 -1.15363,-0.41367 -1.9005,-0.50923 -1.9005,-0.50922 -1.9005,-0.50923 -1.9005,-0.50923 -1.9005,-0.50922 -1.9005,-0.50923 -1.9005,-0.50922 -1.9005,-0.50923 -1.06766,-0.37396 -1.00136,-0.52384 -0.92039,-0.65793 -0.82478,-0.77629 -0.71449,-0.87886 -0.58954,-0.96567 -0.44993,-1.03673 -0.29567,-1.09202 -1.18209,-5.73119 -1.34091,-5.69616 -1.49843,-5.65681 -1.6546,-5.61314 -1.80945,-5.56513 -1.96297,-5.51281 -2.11517,-5.45616 -2.26603,-5.39519 -0.55057,-1.03349 -0.69854,-0.93808 -0.82655,-0.82962 -0.93461,-0.7081 -1.02272,-0.57351 -1.09088,-0.42586 -1.13908,-0.26514 -1.16734,-0.0914 h -5.20427 -5.20426 -5.20427 -5.20427 -5.20427 -5.20426 -5.20427 -5.20427 l -0.79388,0.0406 -0.78568,0.11958 -0.77049,0.19566 -0.74834,0.26884 -0.71923,0.33914 -0.68313,0.40655 -0.64007,0.47108 -0.59004,0.53272 -15.14089,15.14845"
       style="fill:#ffbb00;stroke:#000000;stroke-width:6.66667;stroke-dasharray:none;stroke-opacity:1"
       id="path3364"
       inkscape:export-xdpi="67.387146"
       inkscape:export-ydpi="67.387146"
       sodipodi:nodetypes="ccccccccccccccccccccccccccccccccccccccccccccccccccccccccccccccccccccccccccccccccccccccccccccccccccccccccccccccccccccccccccccccccccccccccccccccccccccccccccccccccccccccccccccccccccccccccccccccccccccccccccccccccccccccccccccccccccccccccccccccccccccccccccccccccccccccccccccccccccccccccccccccccccccccccccccccccccccccccccccccccccccccccccccccccccccccccccccccccccccccccccccccccccccccccccccccccccccccccccccccccccccccccccc" />
    <path
       inkscape:connector-curvature="0"
       d="m 403.50512,548.08166 -5.6937,5.70614 -30.82578,30.82891 -0.59036,0.53297 -0.64043,0.47127 -0.68354,0.40668 -0.71966,0.33919 -0.74879,0.26881 -0.77094,0.19555 -0.78611,0.11938 -0.79431,0.0403 h -16.7508 -16.75081 -16.75081 -16.75082 -16.75081 -16.75081 -16.75081 -16.75081 l -1.02436,-0.0689 -1.00592,-0.20172 -0.97338,-0.32668 -0.92674,-0.4438 -0.86598,-0.55306 -0.79112,-0.65448 -0.70215,-0.74805 -0.59908,-0.83377 -6.2225,-10.48758 -5.78978,-10.73255 -5.34933,-10.95893 -4.90118,-11.16674 -4.4453,-11.35597 -3.98173,-11.52664 -3.51043,-11.67871 -3.03142,-11.81223 -2.54572,-11.92635 -2.05741,-12.02011 -1.56772,-12.09383 -1.07667,-12.14749 -0.58425,-12.18111 -0.0905,-12.19469 0.40471,-12.18821 0.90124,-12.16169 1.39802,-12.11462 1.89074,-12.0474 2.37834,-11.96076 2.8608,-11.85472 3.33815,-11.72924 3.81038,-11.58434 4.27749,-11.42003 4.73947,-11.2363 5.19513,-11.03297 5.64052,-10.81183 6.07487,-10.57393 6.49818,-10.31927 6.91045,-10.04785 7.31169,-9.75968 7.70188,-9.45474 8.08103,-9.13304 8.44789,-8.79446 8.79925,-8.44271 9.13479,-8.07859 9.45452,-7.7021 9.7584,-7.31325 10.04648,-6.91202 10.31873,-6.49841 10.57515,-6.07245 10.81471,-5.63434 11.03534,-5.18872 11.23699,-4.73643 11.41969,-4.27748 11.58344,-3.81187 11.7282,-3.33958 11.854,-2.86064 11.961,-2.37502 12.048,-1.88353 12.1146,-1.39076 12.1612,-0.89772 12.1876,-0.40443 12.194,0.0891 12.1804,0.58295 12.1466,1.07702 12.0928,1.57137 12.0184,2.06481 11.9241,2.55308 11.8106,3.03514 11.678,3.51102 11.5264,3.98071 11.3557,4.44421 11.1657,4.90152 10.9567,5.35264 0.8178,0.48688 0.7529,0.58146 0.6804,0.66559 0.6004,0.73926 0.5128,0.80249 0.4178,0.85528 0.315,0.8976 0.2049,0.92948 0.089,0.94766 -0.026,0.95095 -0.1368,0.94197 -0.2434,0.92073 -0.3461,0.88725 -0.4448,0.84151 -0.5394,0.78351 -0.6302,0.71325 -6.8948,6.89516 -6.8948,6.89516 -6.8947,6.89516 -6.8948,6.89516 -6.8948,6.89515 -6.8947,6.89516 -6.8948,6.89516 -6.8948,6.89516 -0.8834,0.75637 -0.9851,0.61568 -1.0639,0.4701 -1.1198,0.31967 -1.1529,0.16435 -1.163,0.004 -1.1505,-0.16086 -1.1149,-0.33078 -4.3572,-1.61399 -4.3916,-1.51748 -4.4239,-1.42036 -4.4542,-1.3226 -4.4821,-1.22424 -4.5081,-1.12525 -4.5318,-1.02563 -4.5534,-0.92541 -1.092,-0.29572 -1.0367,-0.45003 -0.9656,-0.58965 -0.8789,-0.71462 -0.7762,-0.82492 -0.6579,-0.92055 -0.5238,-1.00151 -0.3739,-1.06781 -0.5092,-1.90047 -0.5092,-1.90047 -0.5092,-1.90047 -0.5092,-1.90047 -0.5092,-1.90048 -0.5092,-1.90047 -0.5092,-1.90047 -0.5092,-1.90047 -0.4134,-1.154 -0.5892,-1.0729 -0.7443,-0.97416 -0.8785,-0.85778 -0.9918,-0.72376 -1.0842,-0.57211 -1.1558,-0.40283 -1.2066,-0.21589 -5.5537,-0.46162 -5.5631,-0.32973 -5.5693,-0.19783 -5.5724,-0.066 -5.5725,0.066 -5.5693,0.19783 -5.5631,0.32973 -5.5537,0.46162 -1.2066,0.21591 -1.1558,0.40283 -1.0842,0.57211 -0.9918,0.72377 -0.8785,0.85777 -0.7443,0.97415 -0.5892,1.07289 -0.4134,1.154 -0.5092,1.90047 -0.5092,1.90047 -0.5092,1.90047 -0.5092,1.90048 -0.5092,1.90047 -0.5092,1.90047 -0.5092,1.90047 -0.5092,1.90047 -0.3739,1.06781 -0.5237,1.00151 -0.6579,0.92054 -0.7763,0.82492 -0.8788,0.71461 -0.9656,0.58966 -1.0367,0.45003 -1.092,0.29573 -3.7377,0.75187 -3.7235,0.8194 -3.708,0.88659 -3.6914,0.95346 -3.6735,1.02 -3.6545,1.08623 -3.6341,1.15211 -3.6127,1.21769 -1.0937,0.29007 -1.1229,0.12876 -1.1312,-0.0277 -1.1186,-0.1794 -1.0848,-0.32626 -1.0301,-0.46829 -0.9545,-0.60551 -0.8577,-0.7379 -1.391,-1.39134 -1.391,-1.39134 -1.391,-1.39134 -1.391,-1.39134 -1.391,-1.39134 -1.391,-1.39134 -1.3909,-1.39134 -1.391,-1.39134 -0.935,-0.79266 -1.0467,-0.63447 -1.1316,-0.47144 -1.1896,-0.30358 -1.2208,-0.13086 -1.225,0.0467 -1.2023,0.22909 -1.15287,0.41633 -5.04097,2.37726 -4.98303,2.49616 -4.92242,2.61351 -4.85913,2.72931 -4.79319,2.84355 -4.72455,2.95624 -4.65324,3.06737 -4.57927,3.17695 -0.93688,0.79037 -0.79946,0.92688 -0.6528,1.03768 -0.49689,1.12277 -0.33175,1.18216 -0.15737,1.21584 0.0263,1.2238 0.21913,1.20607 1.8e-4,-8.7e-4 1.8e-4,-8.8e-4 1.7e-4,-8.7e-4 1.8e-4,-8.8e-4 1.8e-4,-8.7e-4 1.7e-4,-8.7e-4 1.8e-4,-8.8e-4 -3.1e-4,-9e-4 0.5092,1.90047 0.50919,1.90047 0.5092,1.90047 0.5092,1.90047 0.50919,1.90047 0.5092,1.90047 0.50919,1.90047 0.5092,1.90047 0.20989,1.1118 0.0469,1.1293 -0.10972,1.12622 -0.26003,1.10254 -0.40403,1.05828 -0.54168,0.99343 -0.67302,0.90801 -0.79803,0.80199 -2.86091,2.51999 -2.81483,2.57137 -2.76788,2.62184 -2.72007,2.67144 -2.67138,2.72014 -2.62184,2.76797 -2.57142,2.81489 -2.52013,2.86094 -0.80195,0.79814 -0.90798,0.6731 -0.99342,0.54174 -1.05827,0.40406 -1.10253,0.26003 -1.1262,0.1097 -1.12929,-0.047 -1.11178,-0.20996 -1.90009,-0.50923 -1.90009,-0.50922 -1.90009,-0.50923 -1.90009,-0.50922 -1.90009,-0.50922 -1.90009,-0.50923 -1.90009,-0.50923 -1.90009,-0.50922 -1.20595,-0.2191 -1.22369,-0.0262 -1.21572,0.15738 -1.18205,0.33178 -1.12269,0.49691 -1.03762,0.65282 -0.92685,0.79948 -0.79039,0.9369 -3.17665,4.57957 -3.06709,4.65362 -2.95596,4.72495 -2.84327,4.79357 -2.72902,4.85948 -2.61322,4.92268 -2.49586,4.98317 -2.37693,5.04094 -0.41661,1.15273 -0.22941,1.20228 -0.0471,1.22497 0.13048,1.22077 0.30316,1.18969 0.47102,1.13175 0.63404,1.04693 0.79223,0.93523 1.3914,1.39107 1.3914,1.39106 1.3914,1.39107 1.3914,1.39107 1.39139,1.39107 1.3914,1.39106 1.3914,1.39107 1.3914,1.39107 0.73791,0.85781 0.60551,0.95449 0.46831,1.03019 0.32628,1.08489 0.17943,1.11859 0.0278,1.1313 -0.12871,1.12301 -0.29001,1.09372 -1.21773,3.61306 -1.15216,3.63446 -1.08624,3.65468 -1.02002,3.67369 -0.95348,3.69152 -0.88661,3.70816 -0.81942,3.72361 -0.75191,3.73785 -0.29567,1.09198 -0.44993,1.03671 -0.58954,0.96566 -0.71449,0.87886 -0.82477,0.77629 -0.9204,0.65795 -1.00136,0.52386 -1.06766,0.37399 -1.9005,0.50923 -1.9005,0.50922 -1.9005,0.50923 -1.90049,0.50922 -1.9005,0.50923 -1.9005,0.50923 -1.9005,0.50922 -1.9005,0.50923 -1.15363,0.41366 -1.07251,0.58946 -0.97377,0.74442 -0.8574,0.87852 -0.72343,0.99178 -0.57182,1.08419 -0.4026,1.15574 -0.21575,1.20646 -0.46159,5.55402 -0.32971,5.5634 -0.19783,5.56963 -0.0659,5.57276 0.0659,5.57275 0.19783,5.56964 0.32971,5.56339 0.46159,5.55402 0.21576,1.20645 0.40259,1.15575 0.57182,1.08418 0.72343,0.99177 0.8574,0.87853 0.97377,0.74441 1.07251,0.58947 1.15363,0.41367 1.9005,0.50923 1.9005,0.50922 1.9005,0.50923 1.9005,0.50922 1.90049,0.50923 1.9005,0.50923 1.9005,0.50922 1.9005,0.50923 1.06766,0.37397 1.00136,0.52385 0.9204,0.65795 0.82478,0.77629 0.71448,0.87887 0.58954,0.96567 0.44994,1.03671 0.29566,1.09199 1.18209,5.73119 1.34092,5.69616 1.49843,5.65681 1.6546,5.61314 1.80945,5.56513 1.96297,5.51281 2.11517,5.45617 2.26603,5.39519 0.55057,1.03348 0.69854,0.93809 0.82655,0.82962 0.93461,0.70809 1.02272,0.57351 1.09088,0.42586 1.13908,0.26514 1.16733,0.0914 h 5.20427 5.20427 5.20427 5.20427 5.20426 5.20427 5.20427 5.20427 l 0.79388,-0.0406 0.78568,-0.11958 0.77049,-0.19565 0.74835,-0.26885 0.71922,-0.33914 0.68313,-0.40655 0.64007,-0.47108 0.59004,-0.53271 15.14444,-15.14754"
       style="fill:#ffbb00;stroke:#000000;stroke-width:6.66667;stroke-dasharray:none;stroke-opacity:1"
       id="path3364-1"
       inkscape:export-xdpi="67.387146"
       inkscape:export-ydpi="67.387146"
       sodipodi:nodetypes="cccccccccccccccccccccccccccccccccccccccccccccccccccccccccccccccccccccccccccccccccccccccccccccccccccccccccccccccccccccccccccccccccccccccccccccccccccccccccccccccccccccccccccccccccccccccccccccccccccccccccccccccccccccccccccccccccccccccccccccccccccccccccccccccccccccccccccccccccccccccccccccccccccccccccccccccccccccccccccccccccccccccccccccccccccccccccccccccccccccccccccccccccccccccccccccccccccccccccccccccccccccccccccccccccccc" />
  </g>
  <g
     inkscape:groupmode="layer"
     id="layer4"
     inkscape:label="M"
     transform="translate(-175.1775,-124.80695)">
    <path
       style="display:inline;fill:#ff7700;fill-opacity:1;stroke:#000000;stroke-width:6.66667;stroke-linecap:butt;stroke-linejoin:miter;stroke-dasharray:none;stroke-opacity:1"
       inkscape:connector-curvature="0"
       id="path15731"
       d="m 543.98057,562.42021 -7.16672,-7.16712 -7.16671,-7.16712 -7.16672,-7.16712 -7.16671,-7.16712 -7.16672,-7.16712 -7.16671,-7.16712 -7.16672,-7.16712 -7.16671,-7.16712 -1.27211,-1.03942 -1.41052,-0.74244 -1.50279,-0.44546 -1.54893,-0.14849 -1.54892,0.14849 -1.50279,0.44546 -1.41052,0.74244 -1.27211,1.03942 -1.27211,1.03942 -1.41051,0.74245 -1.50279,0.44546 -1.54893,0.14849 -1.54893,-0.14849 -1.50279,-0.44547 -1.41052,-0.74244 -1.27211,-1.03942 -0.35799,-0.35842 -0.35799,-0.35842 -0.35799,-0.35841 -0.35799,-0.35842 -0.358,-0.35842 -0.35799,-0.35842 -0.35799,-0.35841 -0.35799,-0.35842 -1.03936,-1.27218 -0.7424,-1.41059 -0.44544,-1.50288 -0.14848,-1.54901 0.14848,-1.54902 0.44544,-1.50287 0.7424,-1.4106 1.03936,-1.27218 0.30285,-0.30287 0.30286,-0.30287 0.30285,-0.30287 0.30286,-0.30288 0.30285,-0.30287 0.30285,-0.30287 0.30286,-0.30287 0.30285,-0.30287 0.80995,-0.70913 0.88465,-0.58854 0.94616,-0.46441 0.99448,-0.33675 1.02964,-0.20556 1.0516,-0.0708 1.06037,0.0674 1.05598,0.20921 9.48737,2.54216 9.48738,2.54217 9.48737,2.54216 9.48737,2.54217 9.48737,2.54216 9.48738,2.54217 9.48737,2.54216 9.48737,2.54217 2.22301,0.28333 2.09738,-0.30717 1.89429,-0.8202 1.61372,-1.25574 1.25568,-1.61382 0.82015,-1.89439 0.30716,-2.09751 -0.28332,-2.22313 -2.54202,-9.48791 -2.54202,-9.48791 -2.54202,-9.48791 -2.54202,-9.48791 -2.54202,-9.48791 -2.54202,-9.48791 -2.54202,-9.48791 -2.54202,-9.48791 -0.2092,-1.05604 -0.0674,-1.06043 0.0708,-1.05166 0.20554,-1.02969 0.33673,-0.99454 0.46439,-0.94622 0.5885,-0.88469 0.7091,-0.81 0.30285,-0.30287 0.30286,-0.30287 0.30285,-0.30287 0.30286,-0.30287 0.30285,-0.30287 0.30285,-0.30287 0.30286,-0.30287 0.30285,-0.30287 1.27211,-1.03943 1.41052,-0.74246 1.50279,-0.44547 1.54893,-0.14849 1.54893,0.14849 1.50279,0.44547 1.41051,0.74246 1.27211,1.03943 0.3584,0.35801 0.3584,0.35801 0.35839,0.35801 0.3584,0.35801 0.3584,0.35801 0.3584,0.35801 0.35839,0.35801 0.3584,0.35801 1.03936,1.27218 0.7424,1.4106 0.44544,1.50288 0.14848,1.54901 -0.14848,1.54902 -0.44544,1.50287 -0.7424,1.4106 -1.03936,1.27218 -1.03936,1.27218 -0.7424,1.4106 -0.44544,1.50288 -0.14848,1.54901 0.14848,1.54902 0.44544,1.50287 0.7424,1.4106 1.03936,1.27218 7.16672,7.16712 7.16671,7.16712 7.16672,7.16712 7.16671,7.16712 7.16672,7.16713 7.16671,7.16712 7.16672,7.16712 7.16671,7.16712 1.2721,1.03942 1.41052,0.74244 1.50279,0.44546 1.54893,0.14849 1.54893,-0.14849 1.50279,-0.44546 1.41052,-0.74244 1.27211,-1.03942 7.88351,-7.88396 7.8835,-7.88395 7.88351,-7.88396 7.88351,-7.88395 7.8835,-7.88395 7.88351,-7.88396 7.8835,-7.88395 7.88351,-7.88396 1.03936,-1.27218 0.7424,-1.4106 0.44544,-1.50287 0.14849,-1.54902 -0.14849,-1.54901 -0.44544,-1.50288 -0.7424,-1.4106 -1.03936,-1.27218 -7.16671,-7.16728 -7.16672,-7.16728 -7.16671,-7.16728 -7.16671,-7.16728 -7.16672,-7.16728 -7.16671,-7.16728 -7.16672,-7.16728 -7.16671,-7.16728 -1.27211,-1.03943 -1.41052,-0.74245 -1.50279,-0.44547 -1.54893,-0.14849 -1.54893,0.14849 -1.50279,0.44547 -1.41051,0.74245 -1.27211,1.03943 -1.27188,1.0387 -1.41014,0.74193 -1.50231,0.44515 -1.5484,0.14839 -1.54839,-0.14839 -1.50231,-0.44515 -1.41014,-0.74193 -1.27188,-1.0387 -8.60071,-8.60087 -8.6007,-8.60087 -8.60071,-8.60087 -8.60071,-8.60087 -8.6007,-8.60087 -8.60071,-8.60087 -8.6007,-8.60087 -8.60071,-8.60087 -1.03907,-1.27209 -0.7422,-1.41045 -0.44532,-1.50269 -0.14844,-1.5488 0.14844,-1.5488 0.44532,-1.50268 0.7422,-1.41045 1.03907,-1.27208 1.03901,-1.27207 0.74215,-1.41041 0.44529,-1.50264 0.14843,-1.54875 -0.14843,-1.54875 -0.44529,-1.50263 -0.74215,-1.4104 -1.03901,-1.27206 -7.16672,-7.16741 -7.16671,-7.1674 -7.16672,-7.16741 -7.16671,-7.1674 -7.16672,-7.16741 -7.16671,-7.1674 -7.16672,-7.16741 -7.16671,-7.1674 -1.27211,-1.03943 -1.41051,-0.74245 -1.50279,-0.44547 -1.54893,-0.14849 -1.54893,0.14849 -1.50279,0.44547 -1.41052,0.74245 -1.27211,1.03943 -6.75318,6.7536 -6.75318,6.7536 -6.75318,6.75361 -6.75318,6.7536 -6.75318,6.7536 -6.75318,6.75361 -6.75318,6.7536 -6.75318,6.7536 -0.70902,0.80994 -0.58845,0.88462 -0.46435,0.94613 -0.33672,0.99446 -0.20555,1.0296 -0.0709,1.05157 0.0674,1.06035 0.20911,1.05596 3.59167,13.40422 3.59167,13.40422 3.59167,13.40422 3.59167,13.40422 3.59166,13.40423 3.59167,13.40422 3.59167,13.40422 3.59167,13.40422 0.28449,2.22426 -0.30668,2.09866 -0.82025,1.89544 -1.25622,1.61465 -1.6146,1.25623 -1.89537,0.82024 -2.09855,0.30663 -2.22414,-0.28456 -13.40379,-3.59167 -13.40378,-3.59167 -13.40379,-3.59167 -13.40379,-3.59167 -13.40379,-3.59167 -13.40378,-3.59167 -13.40379,-3.59167 -13.40379,-3.59167 -1.05571,-0.2089 -1.06008,-0.0672 -1.05129,0.071 -1.02931,0.20563 -0.99418,0.33675 -0.94586,0.46434 -0.88439,0.58839 -0.80974,0.70893 -6.75322,6.75348 -6.75322,6.75348 -6.75322,6.75348 -6.75322,6.75348 -6.75323,6.75348 -6.75322,6.75348 -6.75322,6.75348 -6.75322,6.75348 -1.03937,1.27218 -0.74241,1.4106 -0.44544,1.50288 -0.14848,1.54901 0.14848,1.54902 0.44545,1.50287 0.7424,1.4106 1.03937,1.27218 7.16688,7.16712 7.16688,7.16712 7.16687,7.16712 7.16688,7.16713 7.16688,7.16712 7.16688,7.16712 7.16687,7.16712 7.16688,7.16712 1.27211,1.03942 1.41051,0.74244 1.50279,0.44546 1.54893,0.14849 1.54893,-0.14849 1.50279,-0.44546 1.41052,-0.74244 1.27211,-1.03942 1.27188,-1.03871 1.41014,-0.74193 1.50231,-0.44517 1.54839,-0.14838 1.5484,0.14838 1.50231,0.44517 1.41014,0.74193 1.27188,1.03871 8.60071,8.60119 8.6007,8.60119 8.60071,8.6012 8.6007,8.60119 8.60071,8.60119 8.60071,8.60119 8.6007,8.6012 8.60071,8.60119 1.03865,1.27195 0.74189,1.41022 0.44513,1.50239 0.14838,1.54848 -0.14838,1.54849 -0.44513,1.50239 -0.74189,1.41022 -1.03865,1.27195 -1.03936,1.27218 -0.7424,1.4106 -0.44544,1.50288 -0.14848,1.54901 0.14848,1.54902 0.44544,1.50287 0.7424,1.4106 1.03936,1.27218 7.16671,7.16712 7.16672,7.16712 7.16671,7.16712 7.16671,7.16712 7.16672,7.16712 7.16671,7.16712 7.16672,7.16712 7.16671,7.16712 1.27211,1.03942 1.41052,0.74245 1.50279,0.44546 1.54893,0.14849 1.54893,-0.14849 1.50279,-0.44546 1.41051,-0.74245 1.27211,-1.03942 7.88351,-7.88395 7.88351,-7.88396 7.88351,-7.88395 7.8835,-7.88396 7.88351,-7.88395 7.88351,-7.88395 7.88351,-7.88396 7.88351,-7.88395 1.03936,-1.27218 0.7424,-1.4106 0.44544,-1.50287 0.14848,-1.54902 -0.14848,-1.54901 -0.44544,-1.50288 -0.7424,-1.4106 -1.03936,-1.27218 z"
       sodipodi:nodetypes="cccccccccccccccccccccccccccccccccccccccccccccccccccccccccccccccccccccccccccccccccccccccccccccccccccccccccccccccccccccccccccccccccccccccccccccccccccccccccccccccccccccccccccccccccccccccccccccccccccccccccccccccccccccccccccccccccccccccccccccccccccccccccccccccccccccccccccccccccccccccccccccccccccccccccccccccccccccccccccccccccccccccccccccccccccccccccccccccccccccccccccccccccc"
       inkscape:export-xdpi="67.387146"
       inkscape:export-ydpi="67.387146" />
  </g>
</svg>
