<?xml version="1.0" encoding="UTF-8" standalone="no"?>
<!-- Created with Inkscape (http://www.inkscape.org/) -->

<svg
   width="210mm"
   height="297mm"
   viewBox="0 0 210 297"
   version="1.1"
   id="svg3970"
   inkscape:version="1.2.2 (732a01da63, 2022-12-09)"
   sodipodi:docname="title_text.svg"
   xmlns:inkscape="http://www.inkscape.org/namespaces/inkscape"
   xmlns:sodipodi="http://sodipodi.sourceforge.net/DTD/sodipodi-0.dtd"
   xmlns="http://www.w3.org/2000/svg"
   xmlns:svg="http://www.w3.org/2000/svg">
  <sodipodi:namedview
     id="namedview3972"
     pagecolor="#ffffff"
     bordercolor="#000000"
     borderopacity="0.25"
     inkscape:showpageshadow="2"
     inkscape:pageopacity="0.0"
     inkscape:pagecheckerboard="0"
     inkscape:deskcolor="#d1d1d1"
     inkscape:document-units="mm"
     showgrid="false"
     inkscape:zoom="16.710735"
     inkscape:cx="153.61383"
     inkscape:cy="171.86557"
     inkscape:window-width="1920"
     inkscape:window-height="1009"
     inkscape:window-x="-8"
     inkscape:window-y="-8"
     inkscape:window-maximized="1"
     inkscape:current-layer="text4508"
     showguides="true">
    <sodipodi:guide
       position="42.896032,249.35102"
       orientation="1,0"
       id="guide7128"
       inkscape:locked="false" />
    <sodipodi:guide
       position="38.9824,249.35103"
       orientation="0,-1"
       id="guide7976"
       inkscape:locked="false" />
  </sodipodi:namedview>
  <defs
     id="defs3967" />
  <g
     inkscape:label="Layer 1"
     inkscape:groupmode="layer"
     id="layer1">
    <g
       aria-label="Bobby"
       id="text4508"
       style="font-size:7.05556px;font-family:'MV Boli';-inkscape-font-specification:'MV Boli';fill:none;stroke:#000000;stroke-width:0.2;stroke-linecap:round;stroke-linejoin:round">
      <path
         d="m 33.222209,44.407139 -0.07136,-0.262086 -0.121569,-0.200419 -0.241156,-0.115626 -0.33762,-0.03854 -0.17247,0.0032 -0.162566,0.0097 -0.152661,0.01615 -0.142756,0.02261 0.01658,0.205198 0.01184,0.267641 0.0071,0.330083 0.0024,0.392526 0.06632,0.003 0.06804,0.0022 0.06976,0.0013 0.07149,4.31e-4 0.476285,-0.03983 0.340203,-0.119502 0.228023,-0.207136 0.04414,-0.270871 -10e-7,-3e-6 -10e-7,-3e-6 -1e-6,-3e-6 z"
         style="font-weight:bold;font-family:Candara;-inkscape-font-specification:'Candara Bold'"
         id="path4923"
         sodipodi:nodetypes="ccccccccccccccccccccccccc" />
      <path
         d="m 34.303878,46.419189 -0.140172,0.599878 -0.420518,0.428484 -0.700862,0.25709 -0.981207,0.0857 -0.221778,-0.0013 -0.276039,-0.0039 -0.330298,-0.0065 -0.384559,-0.009 0.0196,-0.536789 0.014,-0.569949 0.0084,-0.603108 0.0028,-0.636266 -0.0028,-0.603969 -0.0084,-0.557891 -0.014,-0.511812 -0.0196,-0.465734 h 0.139527 0.139526 0.139526 0.139527 l 0.09259,-6.46e-4 0.119286,-0.0019 0.145986,-0.0032 0.172686,-0.0045 0.177422,-0.0045 0.156752,-0.0032 0.136081,-0.0019 0.115411,-6.46e-4 0.667703,0.06201 0.476931,0.186035 0.286158,0.310059 0.09539,0.434082 -0.04888,0.350108 -0.146632,0.285513 -0.244387,0.220917 -0.342141,0.156321 v 0.01292 0.01292 0.01292 0.01292 l 0.201754,0.045 0.188404,0.06955 0.175054,0.09409 0.161704,0.118639 0.135651,0.145125 0.09689,0.176992 0.05814,0.208859 0.01938,0.240726 v -10e-7 -1e-6 -10e-7 z"
         style="font-weight:bold;font-size:7.05556px;font-family:Candara;-inkscape-font-specification:'Candara Bold';fill:none;stroke:#000000;stroke-width:0.2;stroke-linecap:round;stroke-linejoin:round"
         id="path4923-0"
         sodipodi:nodetypes="ccccccccccccccccccccccccccccccccccccccccccccccccccccc" />
      <path
         d="m 37.47346,46.040111 -0.01464,-0.23965 -0.04393,-0.219409 -0.07321,-0.19917 -0.102492,-0.17893 -0.125961,-0.149216 -0.143618,-0.106582 -0.161273,-0.06395 -0.17893,-0.02132 -0.174193,0.01981 -0.157398,0.05943 -0.140603,0.09905 -0.123808,0.138665 -0.09948,0.168379 -0.07106,0.188189 -0.04263,0.207998 -0.01421,0.227807 0.01464,0.239865 0.04392,0.220055 0.07321,0.200247 0.102491,0.180437 0.125962,0.147708 0.143617,0.105506 0.161274,0.0633 0.17893,0.0211 0.173977,-0.01981 0.156752,-0.05943 0.139526,-0.09905 0.122301,-0.138665 0.100985,-0.168379 0.07213,-0.188189 0.04328,-0.207997 0.01443,-0.227807 z"
         style="font-weight:bold;font-family:Candara;-inkscape-font-specification:'Candara Bold'"
         id="path4925"
         sodipodi:nodetypes="cccccccccccccccccccccccccccccccccc" />
      <path
         d="m 41.369865,45.960871 -0.01378,-0.154168 -0.04134,-0.247186 -0.0689,-0.178715 -0.09646,-0.164072 -0.118856,-0.138665 -0.139526,-0.09905 -0.160197,-0.05943 -0.180868,-0.01981 -0.221778,0.01744 -0.189911,0.05232 -0.158044,0.0872 -0.126177,0.122085 0.0032,0.552723 0.0097,0.479946 0.01615,0.407167 0.02261,0.33439 0.116487,0.07385 0.132421,0.05275 0.148355,0.03165 0.164288,0.01055 0.214242,-0.0211 0.184528,-0.0633 0.154814,-0.105506 0.1251,-0.147709 0.09797,-0.17936 0.06998,-0.197017 0.04199,-0.274962 0.014,-0.172039 h -1e-6 v 0 h -10e-7 z"
         style="font-weight:bold;font-family:Candara;-inkscape-font-specification:'Candara Bold'"
         id="path4927"
         sodipodi:nodetypes="ccccccccccccccccccccccccccccccccc" />
      <path
         d="m 49.772459,44.376129 -0.03079,0.172685 -0.09237,0.294125 -0.153953,0.415565 -0.215534,0.537005 -0.253861,0.632606 -0.200031,0.523224 -0.146201,0.413843 -0.09237,0.30446 -0.121655,0.397263 -0.141034,0.330514 -0.160412,0.263766 -0.179791,0.197016 -0.205414,0.138665 -0.251062,0.09905 -0.296709,0.05943 -0.342356,0.01981 -0.01722,-0.166226 -0.01723,-0.166226 -0.01722,-0.166226 -0.01723,-0.166226 0.204122,-0.01529 0.185174,-0.04586 0.166226,-0.07644 0.147278,-0.107013 0.120579,-0.130914 0.08613,-0.151584 0.05168,-0.172255 0.01723,-0.192925 -0.03876,-0.265703 -0.116272,-0.387143 -0.193787,-0.508583 -0.271302,-0.630022 -0.271302,-0.609998 -0.193786,-0.445063 -0.116273,-0.28013 -0.03876,-0.115195 h 0.266134 0.266134 0.266134 0.266134 l 0.01959,0.11821 0.05878,0.234051 0.09797,0.349893 0.137158,0.465734 0.137158,0.47284 0.09797,0.371209 0.05878,0.269579 0.01959,0.167948 h 0.01206 0.01206 0.01206 0.01206 l 0.01766,-0.14857 0.05297,-0.245893 0.08828,-0.343218 0.123593,-0.440542 0.1251,-0.447647 0.08936,-0.36109 0.05362,-0.274531 0.01787,-0.187973 0.226515,0 h 0.226515 0.226516 z"
         style="font-weight:bold;font-family:Candara;-inkscape-font-specification:'Candara Bold'"
         id="path4931"
         sodipodi:nodetypes="ccccccccccccccccccccccccccccccccccccccccccccccccccccccccccccccccc" />
      <path
         d="m 33.473699,46.336384 -0.033,-0.264817 -0.267585,-0.249364 -0.375731,-0.128545 -0.526023,-0.04285 -0.114765,0.0011 -0.106583,0.0032 -0.0984,0.0054 -0.09022,0.0075 0.0019,0.352907 0.0058,0.338697 0.0097,0.324485 0.01357,0.310274 0.06589,0.01206 0.08053,0.0086 0.09517,0.0052 0.109812,0.0017 0.297355,-0.0095 0.254722,-0.02842 0.212089,-0.04737 0.169456,-0.06632 0.129622,-0.09151 0.09259,-0.119502 0.03226,-0.166907 0.04181,-0.156071 -1e-6,2e-6 -2e-6,10e-7 -10e-7,2e-6 z"
         style="font-weight:bold;font-size:7.05556px;font-family:Candara;-inkscape-font-specification:'Candara Bold';fill:none;stroke:#000000;stroke-width:0.2;stroke-linecap:round;stroke-linejoin:round"
         id="path4923-3"
         sodipodi:nodetypes="ccccccccccccccccccccccccccccc" />
      <path
         d="m 38.37263,45.93676 -0.03337,0.410398 -0.100123,0.363028 -0.166872,0.315655 -0.233621,0.268287 -0.278838,0.214028 -0.302522,0.152875 -0.326208,0.09173 -0.349892,0.03057 -0.332237,-0.02778 -0.30769,-0.08333 -0.283144,-0.13888 -0.258598,-0.194432 -0.215534,-0.246541 -0.153953,-0.291756 -0.09237,-0.336973 -0.03079,-0.382191 0.03359,-0.41212 0.100769,-0.36475 0.167948,-0.31738 0.235128,-0.27001 0.280345,-0.215533 0.303599,-0.153954 0.326854,-0.09237 0.350108,-0.03079 0.330514,0.02821 0.305968,0.08462 0.281421,0.141034 0.256875,0.197447 0.215534,0.246755 0.153953,0.292403 0.09237,0.33805 0.03079,0.383698 z"
         style="font-weight:bold;font-size:7.05556px;font-family:Candara;-inkscape-font-specification:'Candara Bold';fill:none;stroke:#000000;stroke-width:0.2;stroke-linecap:round;stroke-linejoin:round"
         id="path4925-9"
         sodipodi:nodetypes="cccccccccccccccccccccccccccccccccc" />
      <path
         d="m 42.286261,45.871296 0.01068,0.287623 -0.117478,0.414316 -0.133497,0.316733 -0.186897,0.29391 -0.233621,0.247186 -0.273669,0.176561 -0.31372,0.105937 -0.353768,0.03531 -0.255368,-0.01464 -0.214888,-0.04392 -0.174408,-0.07321 -0.133928,-0.102491 h -0.0112 -0.0112 -0.0112 -0.0112 l -0.01722,0.03359 -0.01723,0.03359 -0.01723,0.03359 -0.01722,0.03359 h -0.202399 -0.2024 -0.202399 -0.2024 l 0.0196,-0.613443 0.014,-0.631099 0.0084,-0.648755 0.0028,-0.666411 -0.0071,-0.619472 -0.02132,-0.587173 -0.03553,-0.554877 -0.04974,-0.522578 0.247186,-0.01378 0.247185,-0.01378 0.247186,-0.01378 0.247186,-0.01378 -0.01507,0.414488 -0.01077,0.440757 -0.0065,0.467026 -0.0022,0.493295 h 0.01033 0.01033 0.01034 0.01033 l 0.189265,-0.134144 0.21984,-0.09582 0.250416,-0.05749 0.280991,-0.01916 0.313504,0.02993 0.279052,0.08979 0.244602,0.149647 0.210151,0.209505 0.170317,0.249123 0.121655,0.271948 0.04009,0.360572 0.05723,0.251794 h -1e-6 v 0 -1e-6 z"
         style="font-weight:bold;font-size:7.05556px;font-family:Candara;-inkscape-font-specification:'Candara Bold';fill:none;stroke:#000000;stroke-width:0.2;stroke-linecap:round;stroke-linejoin:round"
         id="path4927-4"
         sodipodi:nodetypes="ccccccccccccccccccccccccccccccccccccccccccccccccccccccccccccc" />
      <path
         d="m 45.283496,45.960871 -0.01378,-0.154168 -0.04134,-0.247186 -0.0689,-0.178715 -0.09646,-0.164072 -0.118856,-0.138665 -0.139526,-0.09905 -0.160197,-0.05943 -0.180868,-0.01981 -0.221778,0.01744 -0.189911,0.05232 -0.158044,0.0872 -0.126177,0.122085 0.0032,0.552723 0.0097,0.479946 0.01615,0.407167 0.02261,0.33439 0.116487,0.07385 0.132421,0.05275 0.148355,0.03165 0.164288,0.01055 0.214242,-0.0211 0.184528,-0.0633 0.154814,-0.105506 0.1251,-0.147709 0.09797,-0.17936 0.06998,-0.197017 0.04199,-0.274962 0.014,-0.172039 h -10e-7 v 0 h -10e-7 z"
         style="font-weight:bold;font-size:7.05556px;font-family:Candara;-inkscape-font-specification:'Candara Bold';fill:none;stroke:#000000;stroke-width:0.2;stroke-linecap:round;stroke-linejoin:round"
         id="path4927-7"
         sodipodi:nodetypes="ccccccccccccccccccccccccccccccccc" />
      <path
         d="m 46.199892,45.871296 0.01068,0.287623 -0.117478,0.414316 -0.133497,0.316733 -0.186897,0.29391 -0.233621,0.247186 -0.273669,0.176561 -0.31372,0.105937 -0.353768,0.03531 -0.255368,-0.01464 -0.214888,-0.04392 -0.174408,-0.07321 -0.133928,-0.102491 h -0.0112 -0.0112 -0.0112 -0.0112 l -0.01722,0.03359 -0.01723,0.03359 -0.01723,0.03359 -0.01722,0.03359 h -0.202399 -0.2024 -0.202399 -0.2024 l 0.0196,-0.613443 0.014,-0.631099 0.0084,-0.648755 0.0028,-0.666411 -0.0071,-0.619472 -0.02132,-0.587173 -0.03553,-0.554877 -0.04974,-0.522578 0.247186,-0.01378 0.247185,-0.01378 0.247186,-0.01378 0.247186,-0.01378 -0.01507,0.414488 -0.01077,0.440757 -0.0065,0.467026 -0.0022,0.493295 h 0.01033 0.01033 0.01034 0.01033 l 0.189265,-0.134144 0.21984,-0.09582 0.250416,-0.05749 0.280991,-0.01916 0.313504,0.02993 0.279052,0.08979 0.244602,0.149647 0.210151,0.209505 0.170317,0.249123 0.121655,0.271948 0.04009,0.360572 0.05723,0.251794 h -10e-7 v 0 -1e-6 z"
         style="font-weight:bold;font-size:7.05556px;font-family:Candara;-inkscape-font-specification:'Candara Bold';fill:none;stroke:#000000;stroke-width:0.2;stroke-linecap:round;stroke-linejoin:round"
         id="path4927-4-7"
         sodipodi:nodetypes="ccccccccccccccccccccccccccccccccccccccccccccccccccccccccccccc" />
    </g>
  </g>
</svg>
